<svg width="20" height="20" viewBox="0 0 20 20" fill="none" xmlns="http://www.w3.org/2000/svg">
<rect width="20" height="20" rx="6" fill="#BEDFFF"/>
<g clip-path="url(#clip0_397_865)">
<path d="M10.6422 3.58331C9.2315 3.59018 7.86298 4.06481 6.75099 4.93284C5.63901 5.80087 4.84639 7.01326 4.49732 8.38006L4.07032 7.73431C4.0299 7.66671 3.9762 7.60799 3.91247 7.5617C3.84873 7.51541 3.77629 7.48251 3.69949 7.46497C3.6227 7.44744 3.54315 7.44565 3.46564 7.45969C3.38813 7.47374 3.31427 7.50334 3.24852 7.5467C3.18276 7.59007 3.12646 7.6463 3.08303 7.71201C3.03959 7.77773 3.00992 7.85155 2.99579 7.92905C2.98166 8.00654 2.98337 8.08609 3.00082 8.1629C3.01827 8.23972 3.0511 8.3122 3.09732 8.37598L4.38065 10.3208C4.4698 10.4456 4.60123 10.5337 4.75049 10.5687C4.90289 10.599 5.06108 10.5686 5.19149 10.4841L7.11649 9.1874C7.18286 9.14595 7.24021 9.09157 7.28514 9.0275C7.33006 8.96343 7.36163 8.89098 7.37798 8.81445C7.39432 8.73793 7.3951 8.6589 7.38027 8.58206C7.36544 8.50523 7.3353 8.43217 7.29165 8.36722C7.24801 8.30228 7.19174 8.24678 7.1262 8.20403C7.06066 8.16128 6.98718 8.13215 6.91015 8.11838C6.83313 8.10461 6.75411 8.10648 6.67782 8.12388C6.60153 8.14128 6.52952 8.17385 6.46607 8.21965L5.59049 8.80998C5.82352 7.86404 6.31775 7.00265 7.01679 6.32409C7.71583 5.64552 8.59152 5.17711 9.54397 4.9723C10.4964 4.76748 11.4873 4.83451 12.4034 5.16573C13.3196 5.49696 14.1243 6.07904 14.7255 6.84557C15.3268 7.6121 15.7005 8.53221 15.804 9.50091C15.9076 10.4696 15.7367 11.4479 15.3109 12.3242C14.8852 13.2004 14.2217 13.9394 13.3962 14.4567C12.5707 14.9741 11.6164 15.2489 10.6422 15.25C9.80702 15.2477 8.98478 15.0439 8.24532 14.6557C7.50587 14.2675 6.87108 13.7066 6.3949 13.0205C6.35226 12.955 6.29689 12.8987 6.23208 12.8551C6.16728 12.8114 6.09436 12.7812 6.01765 12.7662C5.94095 12.7513 5.86202 12.7519 5.78556 12.7681C5.7091 12.7842 5.63666 12.8156 5.57255 12.8602C5.50844 12.9049 5.45396 12.962 5.41234 13.0282C5.37073 13.0943 5.34283 13.1682 5.3303 13.2453C5.31777 13.3224 5.32087 13.4013 5.33941 13.4772C5.35795 13.5531 5.39156 13.6246 5.43824 13.6872C6.21236 14.8032 7.32406 15.6415 8.60994 16.0788C9.89583 16.5161 11.2881 16.5294 12.5821 16.1168C13.8761 15.7041 15.0036 14.8872 15.7989 13.7862C16.5942 12.6852 17.0154 11.3581 17.0005 9.99998C17.0062 8.30651 16.34 6.67991 15.148 5.47698C13.9561 4.27405 12.3356 3.59303 10.6422 3.58331Z" fill="#4169E1"/>
<path d="M10.5833 6.47083C10.4286 6.47083 10.2803 6.53228 10.1709 6.64168C10.0615 6.75108 10 6.89945 10 7.05416V9.99999C10.0025 10.1542 10.0636 10.3017 10.1709 10.4124L11.9209 12.1782C12.0307 12.2862 12.1784 12.3472 12.3325 12.3479C12.4866 12.3487 12.6349 12.2892 12.7458 12.1822C12.8556 12.0733 12.9176 11.9252 12.9183 11.7706C12.919 11.6159 12.8581 11.4673 12.7492 11.3574L11.1667 9.76024V7.05416C11.1667 6.89945 11.1052 6.75108 10.9958 6.64168C10.8864 6.53228 10.738 6.47083 10.5833 6.47083Z" fill="#4169E1"/>
</g>
<defs>
<clipPath id="clip0_397_865">
<rect width="14" height="14" fill="white" transform="translate(3 3)"/>
</clipPath>
</defs>
</svg>
